<?xml version="1.0" encoding="UTF-8" standalone="no"?>
<!DOCTYPE svg  PUBLIC '-//W3C//DTD SVG 1.1//EN'  'http://www.w3.org/Graphics/SVG/1.1/DTD/svg11.dtd'>
<svg xmlns="http://www.w3.org/2000/svg" version="1.1">
<defs>
<font id="AsenineThin" horiz-adv-x="805">
<font-face font-weight="400" ascent="1964" unicode-range="U+0020-00FE" bbox="-142 -483 1471 1972" underline-thickness="81" underline-position="-336" font-family="Asenine Thin" x-height="967" panose-1="2 0 4 0 0 0 0 0 0 0" units-per-em="2455" descent="-491" cap-height="1432"/>
<missing-glyph/>
<glyph horiz-adv-x="562" glyph-name="space" unicode=" "/>
<glyph horiz-adv-x="562" glyph-name="space" unicode=" "/>
<glyph horiz-adv-x="189" d="M127 287h-65v1169h65v-1169zM154 68q0 -78 -59 -78t-59 78q0 75 59 75t59 -75z" glyph-name="exclam" unicode="!"/>
<glyph horiz-adv-x="357" d="M322 1434l-8 -333h-66l-8 333h82zM118 1434l-8 -333h-66l-8 333h82z" glyph-name="quotedbl" unicode='&quot;'/>
<glyph horiz-adv-x="900" d="M544 469l28 283h-218l-28 -283h218zM671 1118l-28 -287h221l-8 -79h-221l-28 -283h221l-8 -82h-221l-28 -287h-64l29 287h-218l-28 -287h-61l28 287h-221l8 82h221l28 283h-221l8 79h221l29 287h60l-28 -287h218l28 287h63z" glyph-name="numbersign" unicode="#"/>
<glyph horiz-adv-x="764" d="M728 369q0 -293 -233 -355v-173h-69v161q-24 -2 -49 -2h-59v-159h-69v159q-124 3 -213 60v86q130 -62 213 -60v676q-89 52 -127 93q-86 93 -86 255q0 251 213 306v163h69v-150q32 3 67 3h41v147h69v-147q58 -11 65 -13q54 -15 102 -47v-78q-81 52 -167 60v-621 q98 -54 133 -92q100 -111 100 -272zM426 770v584h-60q-26 0 -48 -2v-527l12 -6zM249 864v474q-144 -46 -144 -222q0 -123 69 -195q25 -26 75 -57zM653 362q0 130 -84 211q-24 23 -74 54v-516q158 54 158 251zM426 95v572q-8 5 -32 17l-76 40v-638q60 1 108 9z" glyph-name="dollar" unicode="$"/>
<glyph horiz-adv-x="966" d="M511 1166q0 -123 -55 -208q-64 -99 -181 -99t-183 99q-56 85 -56 208q0 124 56 209q65 100 183 100q116 0 181 -100q55 -86 55 -209zM864 1442l-727 -1467h-68l730 1467h65zM930 303q0 -123 -56 -208q-65 -99 -182 -99q-118 0 -182 98q-55 84 -55 209t55 210 q64 99 182 99q117 0 182 -100q56 -86 56 -209zM447 1166q0 90 -40 153q-47 74 -132 74q-86 0 -134 -73q-40 -63 -40 -154q0 -90 41 -153q47 -74 133 -74q84 0 131 74q41 64 41 153zM865 303q0 90 -40 154q-48 74 -133 74t-133 -74q-41 -64 -41 -154t41 -153q48 -74 133 -74 q86 0 133 74q40 63 40 153z" glyph-name="percent" unicode="%"/>
<glyph horiz-adv-x="810" d="M775 400q0 -169 -106 -287l1 -1l-380 -357q71 -71 142 -71q49 0 171 76q94 59 152 59l-1 -76q-42 0 -143 -58l-13 -8l-7 -4q-103 -67 -159 -67q-103 0 -236 161l45 44l198 187q-16 -2 -32 -2q-147 0 -253 105q-118 116 -118 299q0 168 106 286q51 56 114 86 q-44 26 -79 66q-91 105 -91 257q0 150 83 252q89 111 235 111q148 0 236 -110q81 -101 81 -253t-90 -257q-35 -40 -76 -65q-47 -40 -148 -40q-140 0 -221 -98q-75 -91 -75 -234t75 -234q81 -98 221 -98q93 0 163 53l49 46q81 95 81 233zM652 1096q0 123 -61 204 q-68 90 -187 90q-118 0 -187 -90q-62 -82 -62 -204q0 -123 62 -204q68 -89 187 -89q114 0 184 92q64 83 64 201z" glyph-name="ampersand" unicode="&amp;"/>
<glyph horiz-adv-x="153" d="M118 1434l-8 -333h-66l-8 333h82z" glyph-name="quotesingle" unicode="&apos;"/>
<glyph horiz-adv-x="306" d="M270 1599q-182 -411 -182 -860q0 -487 182 -842l-24 -72q-210 384 -210 912q0 492 206 927z" glyph-name="parenleft" unicode="("/>
<glyph horiz-adv-x="306" d="M270 737q0 -528 -209 -912l-25 72q183 355 183 842q0 449 -183 860l29 65q205 -435 205 -927z" glyph-name="parenright" unicode=")"/>
<glyph horiz-adv-x="625" d="M590 1067h-257l4 5v-2q21 -191 190 -191l-4 -64q-109 0 -177 84q-22 28 -37 60q-14 -31 -38 -60q-67 -84 -176 -84l-5 64q80 0 132 55q48 51 58 133h-244v65h244v3q-7 73 -47 126q-54 70 -140 70l2 58q109 0 177 -84q21 -26 37 -59q14 31 37 59q68 84 177 84l1 -58 q-85 0 -139 -70q-41 -53 -48 -126v-3h253v-65z" glyph-name="asterisk" unicode="*"/>
<glyph horiz-adv-x="763" d="M728 569h-315v-419h-62v419h-315v82h315v420h62v-420h315v-82z" glyph-name="plus" unicode="+"/>
<glyph horiz-adv-x="199" d="M164 80q0 -14 -2 -26l1 -1l-56 -221h-71l39 177q-34 17 -34 71q0 75 64 75h2v1v-1q57 -1 57 -75z" glyph-name="comma" unicode=","/>
<glyph horiz-adv-x="575" d="M540 455h-504v82h504v-82z" glyph-name="hyphen" unicode="-"/>
<glyph horiz-adv-x="189" d="M154 68q0 -78 -59 -78t-59 78q0 75 59 75t59 -75z" glyph-name="period" unicode="."/>
<glyph horiz-adv-x="558" d="M523 1456l-417 -1454h-70l418 1454h69z" glyph-name="slash" unicode="/"/>
<glyph horiz-adv-x="833" d="M798 717q0 -347 -70 -521q-90 -221 -306 -221q-224 0 -314 216q-72 171 -72 526q0 354 72 525q89 214 314 214q222 0 309 -215q67 -167 67 -524zM725 719q0 332 -44 463q-66 192 -259 192q-197 0 -265 -191q-48 -136 -48 -464q0 -327 49 -465q69 -193 264 -193 q193 0 259 194q44 133 44 464z" glyph-name="zero" unicode="0"/>
<glyph horiz-adv-x="305" d="M269 0h-63v1290l-170 -118v90l233 170v-1432z" glyph-name="one" unicode="1"/>
<glyph horiz-adv-x="710" d="M675 1042q0 -152 -70 -269q-82 -139 -224 -139h-4q-111 0 -180 -85q-59 -74 -72 -191v-189q0 -75 62 -87h456v-82h-448q-138 0 -138 168v134q0 185 88 300q66 87 163 108l5 1h3q142 18 204 84q85 91 85 249q0 136 -56 225q-66 105 -194 105q-226 0 -254 -317h-65 q12 165 82 271q86 128 239 128q161 0 246 -132q72 -111 72 -282z" glyph-name="two" unicode="2"/>
<glyph horiz-adv-x="708" d="M554 1128q0 115 -70 184t-184 69q-108 0 -185 -79l-49 52q100 99 234 99q139 0 231 -93t92 -233q0 -196 -163 -285q213 -114 213 -411q0 -182 -94 -310q-104 -141 -280 -141q-152 0 -263 135l48 53q88 -112 215 -112q147 0 230 119q73 104 73 258q0 137 -59 236 q-69 115 -194 137q-24 -1 -146 -1v73l144 -1q207 35 207 251z" glyph-name="three" unicode="3"/>
<glyph horiz-adv-x="837" d="M802 406h-158v-406h-70v406h-434q-104 0 -104 83q0 46 27 93l502 874h79v-975h158v-75zM574 481v854l-451 -790q-9 -16 -9 -37q0 -27 45 -27h415z" glyph-name="four" unicode="4"/>
<glyph horiz-adv-x="729" d="M694 422q0 -180 -84 -294q-94 -128 -267 -128h-53q-158 0 -254 103l47 61q69 -84 196 -84h52q290 0 290 340q0 144 -62 234q-72 104 -209 104h-285v674h553v-76h-484v-520h205q178 0 271 -121q84 -109 84 -293z" glyph-name="five" unicode="5"/>
<glyph horiz-adv-x="823" d="M788 503q0 -197 -88 -337q-103 -165 -289 -165q-184 0 -287 166q-88 140 -88 336q0 90 20 169l-2 1l243 780h69l-165 -530q90 81 210 81q185 0 289 -165q88 -140 88 -336zM720 501q0 166 -70 283q-84 141 -239 141q-154 0 -237 -141q-70 -118 -70 -283q0 -166 69 -283 q83 -141 238 -141t239 141q70 117 70 283z" glyph-name="six" unicode="6"/>
<glyph horiz-adv-x="832" d="M797 1337q0 -29 -16 -77l-428 -1260h-72l437 1282q7 23 7 47q0 27 -36 27h-653v76h658q103 0 103 -95z" glyph-name="seven" unicode="7"/>
<glyph horiz-adv-x="810" d="M775 400q0 -166 -100 -282q-105 -122 -268 -122q-147 0 -253 105q-118 116 -118 299q0 168 106 286q51 56 114 86q-44 26 -79 66q-91 105 -91 257q0 150 83 252q89 111 235 111q148 0 236 -110q81 -101 81 -253t-90 -257q-35 -40 -76 -65q64 -30 116 -88 q104 -116 104 -285zM652 1096q0 123 -61 204q-68 90 -187 90q-118 0 -187 -90q-62 -82 -62 -204q0 -123 62 -204q68 -89 187 -89q114 0 184 92q64 83 64 201zM420 798v5q-20 1 -30 0v-5h30zM421 733v5h-31v-5q7 -1 14 -1q9 0 17 1zM700 401q0 140 -75 233q-82 99 -218 99 q-140 0 -221 -98q-75 -91 -75 -234t75 -234q81 -98 221 -98q136 0 218 99q75 93 75 233z" glyph-name="eight" unicode="8"/>
<glyph horiz-adv-x="823" d="M788 951q0 -90 -20 -168l2 -1l-243 -781h-69l165 530q-90 -81 -210 -81q-184 0 -288 165q-89 141 -89 336t89 336q104 166 288 166q185 0 288 -165q87 -140 87 -337zM720 953q0 166 -69 283q-83 141 -238 141q-156 0 -240 -141q-69 -116 -69 -283t69 -283 q84 -141 240 -141q153 0 237 142q70 118 70 282z" glyph-name="nine" unicode="9"/>
<glyph horiz-adv-x="190" d="M155 713q0 -76 -59 -76q-60 0 -60 76q0 78 60 78q59 0 59 -78zM155 68q0 -78 -59 -78q-60 0 -60 78q0 75 60 75q59 0 59 -75z" glyph-name="colon" unicode=":"/>
<glyph horiz-adv-x="199" d="M159 713q0 -76 -58 -76q-60 0 -60 76q0 78 60 78q58 0 58 -78zM164 80q0 -14 -2 -26l1 -1l-56 -221h-71l39 177q-34 17 -34 71q0 75 64 75h2v1v-1q57 -1 57 -75z" glyph-name="semicolon" unicode=";"/>
<glyph horiz-adv-x="717" d="M681 98l-645 482v61l645 483v-100l-542 -414l542 -414v-98z" glyph-name="less" unicode="&lt;"/>
<glyph horiz-adv-x="855" d="M820 752h-784v79h784v-79zM820 387h-784v82h784v-82z" glyph-name="equal" unicode="="/>
<glyph horiz-adv-x="717" d="M681 580l-645 -482v98l543 414l-543 414v100l645 -483v-61z" glyph-name="greater" unicode="&gt;"/>
<glyph horiz-adv-x="687" d="M651 1042q0 -365 -315 -415v-359h-66v443h23q139 0 217 99q72 91 72 234q0 136 -56 225q-66 105 -194 105q-111 0 -178 -88q-28 -36 -39 -99q-5 -25 -14 -130h-65q16 213 73 288q86 111 224 111q162 0 247 -132q71 -111 71 -282zM362 68q0 -78 -59 -78q-60 0 -60 78 q0 75 60 75q59 0 59 -75z" glyph-name="question" unicode="?"/>
<glyph horiz-adv-x="1467" d="M1431 174q-119 -220 -339 -347q-184 -106 -347 -106q-289 0 -477 185q-232 228 -232 616q0 330 153 572q224 356 612 356q256 0 426 -168q200 -199 200 -504q0 -346 -188 -540q-108 -111 -212 -111q-116 0 -116 143l13 4l-5 15q-85 -107 -205 -158q-71 -30 -145 -27 q-165 7 -240 155q-47 92 -46 211q0 71 17 151q44 201 158 335q136 159 324 151q197 -8 264 -227l42 197l65 -3l-166 -779q0 -54 7 -69q11 -23 52 -23q69 0 151 93q154 176 154 472q0 293 -171 458q-153 148 -387 148q-260 0 -438 -192q-239 -257 -239 -672q0 -320 151 -510 q165 -207 475 -207q148 0 337 109q214 124 313 311zM994 722q0 87 -24 155q-51 148 -202 154q-155 6 -269 -130q-96 -114 -131 -281q-15 -73 -15 -138q0 -95 34 -167q59 -126 199 -132q74 -3 147 35q124 65 213 194l27 131q21 98 21 179z" glyph-name="at" unicode="@"/>
<glyph horiz-adv-x="802" d="M766 0h-69v711h-592v-711h-69v926q0 211 76 352q96 178 290 178q190 0 287 -179q77 -143 77 -351v-926zM697 791v104q0 479 -295 479q-297 0 -297 -479v-104h592z" glyph-name="A" unicode="A"/>
<glyph horiz-adv-x="778" d="M742 394q0 -171 -86 -277q-93 -114 -259 -114h-221q-48 0 -88 39q-50 48 -50 131l-2 1125h1q0 70 33 117q37 53 104 53l188 1q149 1 240 -117q83 -108 83 -262q0 -234 -191 -319q248 -78 248 -377zM613 1082q0 136 -71 220q-49 58 -90 74q-25 10 -92 10h-192 q-63 -12 -63 -87v-506h200v1h35q125 0 199 81t74 207zM670 394q0 320 -310 320h-67v-1h-188l2 -541q0 -75 62 -87h215q286 0 286 309z" glyph-name="B" unicode="B"/>
<glyph horiz-adv-x="1018" d="M983 1239l-53 -53q-138 188 -339 188q-239 0 -371 -218q-111 -183 -111 -437q0 -256 110 -439q132 -219 372 -219q197 0 339 195l37 -82q-159 -199 -376 -199q-273 0 -426 244q-129 208 -129 498q0 288 130 495q153 244 425 244q229 0 392 -217z" glyph-name="C" unicode="C"/>
<glyph horiz-adv-x="891" d="M855 728q0 -285 -91 -475q-121 -250 -376 -250h-212q-48 0 -88 39q-50 48 -50 131l-2 1125h1q0 70 33 117q37 53 104 53l188 1q232 1 369 -224q124 -205 124 -517zM783 730q0 277 -103 456q-115 200 -321 200h-191q-63 -12 -63 -87l2 -1127q0 -75 62 -87l215 -1 q222 -1 324 226q75 167 75 420z" glyph-name="D" unicode="D"/>
<glyph horiz-adv-x="619" d="M584 0h-410q-64 0 -103 55q-35 49 -35 115v1092h1q0 70 33 117q37 53 104 53h410v-82h-416q-63 -12 -63 -87v-506h412v-80h-412v-508q0 -75 63 -87h416v-82z" glyph-name="E" unicode="E"/>
<glyph horiz-adv-x="619" d="M584 1350h-416q-63 -12 -63 -87v-506h402v-80h-402v-677h-69v1262h1q0 70 33 117q37 53 104 53h410v-82z" glyph-name="F" unicode="F"/>
<glyph horiz-adv-x="1018" d="M983 1239l-53 -53q-138 188 -339 188q-239 0 -371 -218q-111 -183 -111 -437q0 -256 110 -439q132 -219 372 -219q184 0 320 170v332q0 75 -62 87h-416v82h409q66 0 104 -53q34 -48 34 -117v-582h-69v132q-140 -137 -320 -137q-273 0 -426 244q-129 208 -129 498 q0 288 130 495q153 244 425 244q229 0 392 -217z" glyph-name="G" unicode="G"/>
<glyph horiz-adv-x="802" d="M767 0h-70v711h-592v-711h-69v1432h69v-641h592v641h70v-1432z" glyph-name="H" unicode="H"/>
<glyph horiz-adv-x="141" d="M105 0h-69v1432h69v-1432z" glyph-name="I" unicode="I"/>
<glyph horiz-adv-x="594" d="M558 455q0 -180 -46 -299q-67 -171 -219 -171q-42 0 -91 15l-166 50l20 86l170 -54q31 -10 60 -10q104 0 158 119q45 98 45 243v998h69v-977z" glyph-name="J" unicode="J"/>
<glyph d="M769 1h-88l-453 772l-123 -152v-619h-69v1432h69v-688l546 683h103l-475 -593z" glyph-name="K" unicode="K"/>
<glyph horiz-adv-x="619" d="M584 0h-410q-66 0 -104 53q-34 48 -34 117v1262h69v-1263q0 -75 63 -87h416v-82z" glyph-name="L" unicode="L"/>
<glyph horiz-adv-x="1019" d="M983 1h-69l-1 1335q0 32 -17 32q-13 0 -21 -35l-275 -1206q-30 -129 -90 -129q-61 0 -90 129l-276 1206q-8 35 -21 35q-17 0 -17 -32v-1340h-69l-1 1335q0 113 86 113q66 0 88 -96l280 -1227q8 -33 20 -33q11 0 18 32l281 1228q22 96 90 96q83 0 84 -112v-1331z" glyph-name="M" unicode="M"/>
<glyph horiz-adv-x="821" d="M785 124q0 -129 -88 -129q-60 0 -96 99l-454 1247q-8 21 -21 21q-21 0 -21 -37v-1325h-69v1315q0 129 89 129q60 0 96 -98l454 -1246q8 -21 20 -21q21 0 21 35v1318h69v-1308z" glyph-name="N" unicode="N"/>
<glyph horiz-adv-x="1118" d="M1083 717q0 -360 -147 -543q-159 -199 -375 -199q-241 0 -399 216q-126 171 -126 526q0 354 127 526q157 213 398 213q238 0 396 -216q126 -171 126 -523zM1010 719q0 319 -102 463q-137 192 -347 192q-213 0 -349 -191q-103 -144 -103 -464t103 -465q137 -193 349 -193 q210 0 347 194q102 145 102 464z" glyph-name="O" unicode="O"/>
<glyph horiz-adv-x="750" d="M715 1018q0 -195 -113 -326q-96 -112 -274 -112h-223v-580h-69v1282q0 69 34 117q38 53 104 53l206 -1q166 -1 257 -139q78 -119 78 -294zM642 1016q0 144 -58 239q-69 115 -204 115h-212q-63 -12 -63 -87v-621h247q145 0 222 108q68 95 68 246z" glyph-name="P" unicode="P"/>
<glyph horiz-adv-x="1118" d="M1083 717q0 -358 -144 -540q-69 -87 -149 -137q-65 -177 -200 -245q9 -4 22 -12q133 -78 187 -78q100 0 239 158v-92q-129 -147 -239 -147q-56 0 -175 69q-1 1 -6 4l-15 9q-80 49 -143 58h-8v1h-6q-99 0 -239 -159v91q127 147 239 147q7 0 14 -1q144 7 231 152 q-63 -20 -130 -20q-241 0 -399 216q-126 171 -126 526q0 354 127 526q157 213 398 213q238 0 396 -216q126 -171 126 -523zM1010 719q0 319 -102 463q-137 192 -347 192q-213 0 -349 -191q-103 -144 -103 -464t103 -465q137 -193 349 -193q95 0 177 42q21 75 21 164 q0 163 -71 285q-85 145 -238 145l2 70q185 0 288 -166q87 -140 87 -336q0 -55 -8 -106q48 42 87 98q104 146 104 462z" glyph-name="Q" unicode="Q"/>
<glyph horiz-adv-x="750" d="M715 1018q0 -196 -113 -326q-29 -34 -69 -60l181 -631h-70l-173 602q-63 -23 -143 -23h-223v-580h-69v1282q0 69 34 117q38 53 104 53l206 -1q166 -1 257 -139q78 -119 78 -294zM642 1016q0 143 -58 239q-70 115 -204 115h-212q-63 -12 -63 -87v-621h247q145 0 222 108 q68 95 68 246z" glyph-name="R" unicode="R"/>
<glyph horiz-adv-x="764" d="M728 369q0 -173 -88 -271q-93 -102 -263 -98l-45 1v-1h-19q-261 0 -261 373v57h60v-57q0 -287 206 -287h25q110 0 189 41q121 63 121 235q0 130 -84 211q-45 43 -175 111l-71 37q-149 78 -201 134q-86 93 -86 255q0 322 349 322h79q261 0 261 -369v-57h-61v57 q0 291 -207 291h-91q-261 0 -261 -238q0 -123 69 -195q42 -44 156 -102l109 -56q146 -75 189 -122q100 -111 100 -272z" glyph-name="S" unicode="S"/>
<glyph horiz-adv-x="764" d="M728 1350h-312v-1350h-70v1350h-310v82h692v-82z" glyph-name="T" unicode="T"/>
<glyph horiz-adv-x="802" d="M766 506q0 -209 -76 -352q-96 -179 -288 -179q-195 0 -290 178q-76 140 -76 353v926h69v-891q0 -480 297 -480q295 0 295 480v891h69v-926z" glyph-name="U" unicode="U"/>
<glyph horiz-adv-x="912" d="M877 1432l-323 -1323q-33 -132 -98 -132q-64 0 -96 132l-324 1323h69l324 -1329q9 -37 27 -37t27 36l325 1330h69z" glyph-name="V" unicode="V"/>
<glyph horiz-adv-x="1359" d="M1324 1432l-324 -1323q-32 -132 -98 -132q-64 0 -96 132l-126 518l-126 -518q-33 -132 -98 -132q-64 0 -96 132l-324 1323h69l324 -1329q9 -37 27 -37t27 36l161 670l-161 660h69l323 -1329q9 -37 27 -37q19 0 27 36l325 1330h70z" glyph-name="W" unicode="W"/>
<glyph horiz-adv-x="827" d="M792 1h-71l-307 642l-308 -642h-70l343 715l-343 716h69l309 -644l308 644h70l-343 -716z" glyph-name="X" unicode="X"/>
<glyph horiz-adv-x="827" d="M792 1432l-345 -721v-711h-65v709l-346 723h69l309 -644l308 644h70z" glyph-name="Y" unicode="Y"/>
<glyph horiz-adv-x="772" d="M736 0h-590q-110 0 -110 102q0 50 36 117l578 1069q9 17 9 33q0 31 -39 31h-575v80h578q104 0 104 -105q0 -49 -26 -96l-581 -1075q-13 -24 -13 -41q0 -33 41 -33h588v-82z" glyph-name="Z" unicode="Z"/>
<glyph horiz-adv-x="288" d="M253 -179h-79q-66 0 -104 53q-34 48 -34 117v1472q0 69 34 117q38 53 104 53h79v-72h-93q-62 -12 -62 -87v-1494q0 -75 62 -87h93v-72z" glyph-name="bracketleft" unicode="["/>
<glyph horiz-adv-x="507" d="M472 -3h-69l-367 1459h70z" glyph-name="backslash" unicode="\"/>
<glyph horiz-adv-x="288" d="M253 -9q0 -69 -34 -117q-38 -53 -104 -53h-79v72h93q62 13 62 87v1494q0 74 -62 87h-93v72h79q66 0 104 -53q34 -48 34 -117v-1472z" glyph-name="bracketright" unicode="]"/>
<glyph horiz-adv-x="492" d="M457 1121h-77l-133 237l-133 -237h-78l160 311h102z" glyph-name="asciicircum" unicode="^"/>
<glyph horiz-adv-x="860" d="M825 -483h-789v80h789v-80z" glyph-name="underscore" unicode="_"/>
<glyph horiz-adv-x="332" d="M36 1432l168 -351h92l-165 351h-95z" glyph-name="grave" unicode="`"/>
<glyph horiz-adv-x="820" d="M785 0h-65v180q-61 -110 -169 -165q-66 -33 -138 -33q-188 0 -290 164q-87 138 -87 337q0 203 84 339q100 163 290 163q198 0 310 -214v197h65v-968zM720 303v131q0 183 -62 310q-81 165 -245 165q-158 0 -240 -140q-69 -115 -69 -284q0 -171 67 -285q82 -139 242 -139 q74 0 138 41q110 71 169 201z" glyph-name="a" unicode="a"/>
<glyph horiz-adv-x="821" d="M785 483q0 -199 -86 -337q-103 -164 -290 -164q-72 0 -138 33q-109 55 -169 165v-180h-65l-1 1v1427h65v-657q113 214 311 214q190 0 290 -163q83 -136 83 -339zM718 485q0 168 -69 284q-84 140 -240 140q-166 0 -246 -165q-61 -126 -61 -310v-131q58 -130 169 -201 q64 -41 138 -41q158 0 241 139q68 115 68 285z" glyph-name="b" unicode="b"/>
<glyph horiz-adv-x="713" d="M678 840l-47 -53q-90 122 -218 122q-156 0 -240 -141q-69 -116 -69 -283t69 -283q84 -141 240 -141q128 0 218 124l45 -56q-110 -147 -263 -147q-184 0 -288 165q-89 141 -89 336t89 336q104 166 288 166q155 0 265 -145z" glyph-name="c" unicode="c"/>
<glyph horiz-adv-x="821" d="M785 1428v-1428h-65v180q-60 -110 -169 -165q-66 -33 -138 -33q-188 0 -290 164q-87 138 -87 337q0 203 84 339q100 163 290 163q198 0 311 -214v657h64zM720 303v131q0 183 -62 310q-81 165 -245 165q-158 0 -240 -140q-69 -115 -69 -284q0 -171 68 -285 q82 -139 241 -139q74 0 138 41q110 71 169 201z" glyph-name="d" unicode="d"/>
<glyph horiz-adv-x="822" d="M786 499q0 -26 -4 -44h-677q7 -160 79 -268q86 -126 236 -126q75 0 150 33q81 35 122 91l48 -59q-108 -144 -320 -144q-188 0 -293 163q-91 139 -91 338q0 195 89 336q104 166 288 166q179 0 283 -159q90 -138 90 -327zM718 535q-11 151 -81 253q-84 121 -224 121 q-141 0 -225 -121q-71 -102 -83 -253h613z" glyph-name="e" unicode="e"/>
<glyph horiz-adv-x="393" d="M400 1334l-80 20q-24 6 -47 6q-174 0 -174 -275v-118h240v-80h-240v-887h-63v1094q0 133 49 228q62 119 183 119q32 0 63 -9l69 -20v-78z" glyph-name="f" unicode="f"/>
<glyph horiz-adv-x="820" d="M785 39q0 -202 -80 -335q-96 -161 -285 -161q-89 0 -156 24q-39 14 -146 72l22 84q128 -96 283 -96q157 0 234 135q63 109 63 277v135q-28 -46 -85 -100q-47 -44 -77 -59q-68 -33 -145 -33q-188 0 -290 164q-87 138 -87 337q0 203 84 339q100 163 290 163q198 0 310 -214 v196h65v-928zM720 287v147q0 183 -62 310q-81 165 -245 165q-158 0 -240 -140q-69 -115 -69 -284q0 -171 67 -285q82 -139 242 -139q81 0 145 41q100 63 162 185z" glyph-name="g" unicode="g"/>
<glyph horiz-adv-x="678" d="M642 0h-63v573q0 126 -49 219q-61 115 -177 115q-131 0 -199 -132q-55 -104 -55 -249v-526h-63v1432h63v-637q90 192 254 192q155 0 230 -146q59 -114 59 -284v-557z" glyph-name="h" unicode="h"/>
<glyph horiz-adv-x="165" d="M129 1239q0 -61 -47 -61q-46 0 -46 61q0 59 46 59q47 0 47 -59zM115 0h-65v967h65v-967z" glyph-name="i" unicode="i"/>
<glyph horiz-adv-x="414" d="M379 1239q0 -61 -46 -61q-47 0 -47 61q0 59 47 59q46 0 46 -59zM364 -98q0 -338 -284 -338h-44v78h44q221 0 221 268v1057h63v-1065z" glyph-name="j" unicode="j"/>
<glyph horiz-adv-x="701" d="M666 1h-77l-312 446l-176 -247v-200h-65v1432h65v-1127l482 679h77l-346 -485z" glyph-name="k" unicode="k"/>
<glyph horiz-adv-x="136" d="M101 0h-65v1432h65v-1432z" glyph-name="l" unicode="l"/>
<glyph horiz-adv-x="1095" d="M1060 0h-65v618q0 114 -46 194q-56 97 -162 97t-163 -97q-46 -80 -46 -194v-618h-63v618q0 114 -46 194q-56 97 -162 97q-89 0 -146 -75q-48 -64 -59 -159v-675h-66v592q0 9 1 25.5t1 25.5v324h64v-98q74 116 208 116q154 0 237 -188q87 188 237 188q145 0 218 -131 q58 -104 58 -262v-592z" glyph-name="m" unicode="m"/>
<glyph horiz-adv-x="678" d="M642 0h-63v573q0 130 -53 223q-66 113 -186 113q-121 0 -185 -100q-54 -86 -54 -213v-594h-1v-2h-63v2h-1v967h65v-133q83 149 239 149q159 0 239 -147q63 -117 63 -291v-547z" glyph-name="n" unicode="n"/>
<glyph horiz-adv-x="823" d="M788 483q0 -195 -88 -336q-103 -165 -287 -165t-288 165q-89 141 -89 336t89 336q104 166 288 166t287 -166q88 -140 88 -336zM720 485q0 166 -69 283q-83 141 -238 141q-156 0 -240 -141q-69 -116 -69 -283t69 -283q84 -141 240 -141q153 0 237 142q70 118 70 282z" glyph-name="o" unicode="o"/>
<glyph horiz-adv-x="821" d="M785 483q0 -199 -86 -337q-103 -164 -290 -164q-72 0 -138 33q-109 55 -169 165v-640h-65l-1 1v1457h65v-227q113 214 311 214q190 0 290 -163q83 -136 83 -339zM718 485q0 168 -69 284q-84 140 -240 140q-166 0 -246 -165q-61 -126 -61 -310v-131q58 -130 169 -201 q64 -41 138 -41q158 0 241 139q68 115 68 285z" glyph-name="p" unicode="p"/>
<glyph horiz-adv-x="821" d="M785 998v-1458h-65v640q-60 -110 -169 -165q-66 -33 -138 -33q-188 0 -290 164q-87 138 -87 337q0 203 84 339q100 163 290 163q198 0 311 -214v227h64zM720 303v131q0 183 -62 310q-81 165 -245 165q-158 0 -240 -140q-69 -115 -69 -284q0 -171 68 -285 q82 -139 241 -139q74 0 138 41q110 71 169 201z" glyph-name="q" unicode="q"/>
<glyph horiz-adv-x="477" d="M442 875h-5q8 0 -87 14q-107 1 -181 -122q-70 -117 -70 -335v-432h-63v967h63v-189q90 193 261 193q13 -2 82 -15v-81z" glyph-name="r" unicode="r"/>
<glyph horiz-adv-x="641" d="M606 248q0 -248 -290 -248h-76q-139 0 -204 106l58 45q53 -71 146 -71h123q178 0 178 162q0 139 -170 200l-144 52q-185 67 -185 247q0 226 234 226h73v1h42q141 0 203 -102l-57 -45q-51 68 -153 68h-131q-147 0 -147 -152q0 -115 151 -170l150 -55q199 -73 199 -264z " glyph-name="s" unicode="s"/>
<glyph horiz-adv-x="309" d="M303 887h-202v-691q0 -118 65 -118h44v-78h-33q-141 0 -141 188v1053h65v-274h202v-80z" glyph-name="t" unicode="t"/>
<glyph horiz-adv-x="677" d="M641 420q0 -174 -63 -291q-80 -147 -239 -147q-161 0 -240 146q-63 116 -63 292v547h63v-574q0 -132 53 -224q64 -112 187 -112q121 0 185 113q53 93 53 223v574h64v-547z" glyph-name="u" unicode="u"/>
<glyph horiz-adv-x="748" d="M713 967l-256 -889q-28 -98 -82 -98q-55 0 -83 98l-256 889h69l242 -848q13 -45 26 -45q16 0 29 44l242 849h69z" glyph-name="v" unicode="v"/>
<glyph horiz-adv-x="1103" d="M1067 967l-255 -889q-29 -98 -83 -98q-55 0 -83 98l-94 325l-95 -325q-28 -98 -82 -98q-55 0 -83 98l-256 889h69l242 -848q13 -45 26 -45q16 0 29 44l115 407l-127 442h70l241 -848q13 -45 27 -45q16 0 28 44l242 849h69z" glyph-name="w" unicode="w"/>
<glyph horiz-adv-x="719" d="M684 2h-70l-254 422l-254 -422h-70l289 495l-289 485h69l255 -413l247 413h69l-281 -485z" glyph-name="x" unicode="x"/>
<glyph horiz-adv-x="685" d="M649 30q0 -202 -79 -335q-96 -161 -285 -161q-132 0 -249 96l23 84q64 -61 140 -82q51 -14 89 -14q156 0 234 135q62 109 62 277v98q-84 -146 -238 -146q-161 0 -240 146q-62 116 -62 292v547h63v-574q0 -132 53 -224q64 -112 186 -112q121 0 186 113q52 93 52 223v574 h65v-937z" glyph-name="y" unicode="y"/>
<glyph horiz-adv-x="616" d="M581 0h-447q-98 0 -98 96q0 41 39 103l406 639q9 15 9 26q0 25 -28 25h-388v78h379q107 0 107 -90q0 -47 -33 -99l-404 -635q-12 -19 -12 -34q0 -25 33 -25h437v-84z" glyph-name="z" unicode="z"/>
<glyph horiz-adv-x="554" d="M519 -212h-32q-153 0 -204 90q-44 76 -44 283v240q0 283 -203 327v4h1l2 1q97 18 153 127q47 91 47 200l-2 264q6 195 46 261q52 89 236 90v-83q-137 0 -174 -63q-32 -55 -34 -187q0 -43 2 -120q3 -71 3 -121q2 -157 -16 -224q-31 -111 -126 -147q98 -36 125 -134 q17 -63 15 -218q0 -22 -2 -88q-2 -62 0 -131q4 -177 32 -226q36 -62 175 -62v-83z" glyph-name="braceleft" unicode="{"/>
<glyph horiz-adv-x="141" d="M105 -483h-69v2048h69v-2048z" glyph-name="bar" unicode="|"/>
<glyph horiz-adv-x="554" d="M519 728q-203 -44 -203 -327v-240q0 -207 -44 -283q-53 -90 -205 -90h-31v83q138 0 174 62q28 48 33 226q1 57 0 131l-2 88q-3 155 15 218q27 98 124 134q-95 36 -125 147q-18 66 -17 224q0 50 3 121q3 77 2 120q-1 132 -34 187q-37 63 -173 63v83q183 0 236 -90 q39 -67 45 -261q-1 33 -1 -264q0 -110 47 -201q54 -107 152 -126l2 -1h2v-4z" glyph-name="braceright" unicode="}"/>
<glyph horiz-adv-x="748" d="M712 1035q-40 -77 -79 -111q-57 -49 -139 -44q-46 3 -133 31.5t-132 31.5q-99 6 -152 -56h-41q39 79 79 113q55 47 142 41q44 -3 128 -31.5t128 -31.5q100 -8 158 57h41z" glyph-name="asciitilde" unicode="~"/>
<glyph horiz-adv-x="189" d="M154 1228q0 -75 -59 -75t-59 75q0 78 59 78t59 -78zM129 -160h-67v1169h67v-1169z" glyph-name="exclamdown" unicode="¡"/>
<glyph horiz-adv-x="713" d="M244 122l223 781q-26 6 -54 6q-156 0 -240 -141q-69 -116 -69 -283q0 -180 84 -301q26 -38 56 -62zM595 1113l-46 -160q71 -37 129 -113l-47 -53q-46 63 -102 93l-226 -796q50 -23 110 -23q128 0 218 124l45 -56q-110 -147 -263 -147q-71 0 -131 27l-35 -121h-70l45 157 q-42 33 -79 82q-107 144 -107 356q0 195 89 336q104 166 288 166q39 0 75 -9l38 132z" glyph-name="cent" unicode="¢"/>
<glyph horiz-adv-x="678" d="M517 687h-353v-511q0 -72 62 -87h416v-82h-409q-67 0 -105 53q-33 48 -33 117v358h-1v152h-58v82h58v193q0 470 265 470q42 0 91 -15l166 -50l-20 -86l-169 54q-32 10 -60 10q-113 0 -166 -134q-38 -96 -38 -228v-94h1v-120h353v-82z" glyph-name="sterling" unicode="£"/>
<glyph horiz-adv-x="616" d="M448 834q-58 -53 -134 -53q-80 0 -139 59l-89 -115l-44 58l89 115q-45 75 -45 180q0 100 40 173l-90 118l43 56l90 -115q61 65 145 65q80 0 140 -58l77 101l44 -58l-78 -101q44 -76 44 -181q0 -112 -48 -189l88 -115l-44 -56zM314 1312q-87 0 -134 -76q-39 -64 -39 -156 t39 -157q47 -76 134 -76q86 0 133 77q40 64 40 156q0 91 -40 156q-47 76 -133 76z" glyph-name="currency" unicode="¤"/>
<glyph horiz-adv-x="827" d="M763 307h-316v-307h-65v307h-310v82h310v283h-310v79h290l-326 681h69l309 -644l308 644h70l-326 -681h297v-79h-316v-283h316v-82z" glyph-name="yen" unicode="¥"/>
<glyph horiz-adv-x="141" d="M105 814h-69v758h69v-758zM105 -180h-69v748h69v-748z" glyph-name="brokenbar" unicode="¦"/>
<glyph horiz-adv-x="560" d="M122 441l3 2q11 -16 18 -27q20 -19 47 -34q18 -6 43 -6h110q122 0 122 150q0 53 -27 94l-2 -2q-11 16 -19 26q-20 19 -47 35q-17 6 -43 6h-110q-122 0 -122 -151q0 -53 27 -93zM48 1010q0 246 242 246h63q117 0 171 -105l-48 -45q-45 71 -123 71h-102q-149 0 -149 -161 q0 -138 142 -198l120 -51q16 -7 22 -10q48 -14 81 -65q53 -66 53 -170q0 -197 -152 -220q145 -75 145 -252q0 -245 -243 -245h-63q-116 0 -171 105l49 44q44 -70 122 -70h103q149 0 149 160q0 136 -143 198l-120 52q-11 5 -21 10q-49 14 -82 65q-52 66 -52 169 q0 197 151 221q-144 74 -144 251z" glyph-name="section" unicode="§"/>
<glyph horiz-adv-x="441" d="M406 1237q0 -78 -60 -78q-59 0 -59 78t59 78q60 0 60 -78zM155 1237q0 -78 -60 -78q-59 0 -59 78t59 78q60 0 60 -78z" glyph-name="dieresis" unicode="¨"/>
<glyph horiz-adv-x="1118" d="M1083 717q0 -360 -147 -543q-159 -199 -375 -199q-241 0 -399 216q-126 171 -126 526q0 354 127 526q157 213 398 213q238 0 396 -216q126 -171 126 -523zM1010 719q0 319 -102 463q-137 192 -347 192q-213 0 -349 -191q-103 -144 -103 -464t103 -465q137 -193 349 -193 q210 0 347 194q102 145 102 464zM792 984q-85 117 -203 117q-141 0 -217 -127q-65 -106 -65 -256q0 -149 65 -257q77 -128 217 -128q115 0 205 123l31 -67q-103 -128 -236 -128q-167 0 -261 150q-79 128 -79 305t80 304q94 150 260 150q141 0 246 -141z" glyph-name="copyright" unicode="©"/>
<glyph horiz-adv-x="648" d="M612 738h-64v110q-85 -123 -222 -123q-142 0 -221 116q-69 101 -69 250q0 151 67 251q77 116 220 116q141 0 225 -133v121h64v-708zM564 961v95q0 137 -50 230q-63 118 -188 118q-120 0 -185 -99q-55 -85 -55 -212q0 -128 55 -213q64 -99 185 -99q54 0 106 31 q86 52 132 149z" glyph-name="ordfeminine" unicode="ª"/>
<glyph horiz-adv-x="598" d="M363 172h-80l-247 317l247 318h80l-244 -318zM563 172h-80l-247 317l247 318h80l-244 -318z" glyph-name="guillemotleft" unicode="«"/>
<glyph horiz-adv-x="678" d="M643 207h-60v250h-547v82h607v-332z" glyph-name="logicalnot" unicode="¬"/>
<glyph horiz-adv-x="1118" d="M1083 717q0 -360 -147 -543q-159 -199 -375 -199q-241 0 -399 216q-126 171 -126 526q0 354 127 526q157 213 398 213q238 0 396 -216q126 -171 126 -523zM1010 719q0 319 -102 463q-137 192 -347 192q-213 0 -349 -191q-103 -144 -103 -464t103 -465q137 -193 349 -193 q210 0 347 194q102 145 102 464zM732 281l-103 359q-36 -12 -81 -12h-126v-348h-57v780q0 113 91 112l123 -1q103 -1 160 -87q49 -75 49 -183q0 -159 -107 -236l110 -384h-59zM579 1102h-126q-31 -6 -31 -42v-362h140q166 0 166 202q0 81 -33 136q-40 66 -116 66z" glyph-name="registered" unicode="®"/>
<glyph horiz-adv-x="450" d="M415 1188h-379v100h379v-100z" glyph-name="macron" unicode="¯"/>
<glyph horiz-adv-x="493" d="M457 1176q0 -111 -48 -186q-57 -87 -163 -87q-105 0 -162 87q-48 75 -48 186t49 186q57 88 163 88q104 0 161 -89q48 -75 48 -185zM412 1176q0 83 -40 143q-46 70 -124 70q-79 0 -125 -69q-39 -60 -39 -144t39 -144q46 -69 125 -69q78 0 124 70q40 60 40 143z" glyph-name="degree" unicode="°"/>
<glyph horiz-adv-x="766" d="M731 569h-315v-419h-62v419h-315v82h315v420h62v-420h315v-82zM725 6h-689v82h689v-82z" glyph-name="plusminus" unicode="±"/>
<glyph horiz-adv-x="470" d="M252 962h-3q-125 0 -144 -157v-112q0 -36 31 -43h281v-69h-278q-90 0 -90 111v80q0 133 71 206q37 38 89 50h3q166 20 166 190q0 188 -142 188q-128 0 -146 -191h-54q19 260 200 260q100 0 153 -83q46 -71 46 -176q0 -92 -44 -167q-53 -87 -139 -87z" glyph-name="twosuperior" unicode="²"/>
<glyph horiz-adv-x="473" d="M206 565q-94 0 -170 91l41 45q56 -71 129 -71q84 0 132 68q42 60 42 148q0 188 -145 214h-95v63h94q117 19 117 141q0 141 -145 141q-61 0 -111 -50l-41 44q69 69 152 69q88 0 145 -58t57 -147q0 -113 -88 -171q117 -77 117 -247q0 -112 -58 -192q-65 -88 -173 -88z" glyph-name="threesuperior" unicode="³"/>
<glyph horiz-adv-x="332" d="M296 1432l-167 -351h-93l166 351h94z" glyph-name="acute" unicode="´"/>
<glyph horiz-adv-x="704" d="M539 -246q-172 0 -172 180q0 26 5 49q-15 -1 -31 -1q-159 0 -240 149v-583h-65v1422h65v-3h1v-574q0 -130 53 -223q65 -113 186 -113q49 0 90 20q9 7 19 11q38 24 67 67q62 93 62 238v574h65v-547q0 -193 -76 -311q-43 -68 -105 -99q-11 -17 -23 -33q-8 -17 -8 -48 q0 -94 105 -98q15 -1 107 67.5t149 64.5v-73q-45 0 -133 -68t-121 -68z" glyph-name="mu" unicode="µ"/>
<glyph horiz-adv-x="750" d="M645 1283q0 74 -62 87h-71v-1498h-65v708h-24q-178 0 -274 112q-113 131 -113 326q0 175 78 294q90 138 256 139l207 1q66 0 104 -53q34 -48 34 -117v-1412h-70v1413z" glyph-name="paragraph" unicode="¶"/>
<glyph horiz-adv-x="498" d="M290 -456q-33 0 -120.5 68t-133.5 68v73q57 4 148.5 -64.5t107.5 -67.5q105 4 105 98q0 99 -87 99q-47 0 -77 -42l1 282h52v-184q21 13 47 13q62 0 98 -53q32 -46 32 -110q0 -180 -173 -180z" glyph-name="cedilla" unicode="¸"/>
<glyph horiz-adv-x="226" d="M138 576v768l-102 -71v76l155 114v-887h-53z" glyph-name="onesuperior" unicode="¹"/>
<glyph horiz-adv-x="526" d="M263 799q-110 0 -173 97q-54 83 -54 200q0 116 54 200q63 97 173 97q111 0 174 -97q53 -83 53 -200q0 -118 -53 -200q-62 -97 -174 -97zM263 1330q-86 0 -133 -77q-39 -64 -39 -156t39 -156q47 -76 133 -76t133 76q40 65 40 156q0 92 -40 156q-46 77 -133 77z" glyph-name="ordmasculine" unicode="º"/>
<glyph horiz-adv-x="598" d="M236 172h80l247 317l-247 318h-80l244 -318zM36 172h80l247 317l-247 318h-80l244 -318z" glyph-name="guillemotright" unicode="»"/>
<glyph horiz-adv-x="1033" d="M856 1432l-731 -1457h-63l730 1457h64zM138 576v768l-102 -71v76l155 114v-887h-53zM903 244v-243h-57v243h-252q-70 0 -70 60q0 31 17 62l304 528h58v-585h95v-65h-95zM846 781l-256 -449q-5 -8 -5 -16q0 -7 20 -7h241v472z" glyph-name="onequarter" unicode="¼"/>
<glyph horiz-adv-x="1077" d="M856 1432l-731 -1457h-63l730 1457h64zM138 576v768l-102 -71v76l155 114v-887h-53zM858 381h-3q-125 0 -144 -156v-113q0 -35 31 -42h281v-69h-277q-90 0 -90 111v80q0 132 71 206q36 38 89 49h2q83 11 118 48q49 51 49 142q0 188 -143 188q-130 0 -145 -190h-55 q19 259 201 259q100 0 153 -82q46 -71 46 -176q0 -93 -45 -167q-52 -88 -139 -88z" glyph-name="onehalf" unicode="½"/>
<glyph horiz-adv-x="1126" d="M949 1432l-731 -1457h-63l730 1457h64zM206 565q-94 0 -170 91l41 45q56 -71 129 -71q84 0 132 68q42 60 42 148q0 188 -145 214h-95v63h94q117 19 117 141q0 141 -145 141q-61 0 -111 -50l-41 44q69 69 152 69q88 0 145 -58t57 -147q0 -113 -88 -171q117 -77 117 -247 q0 -112 -58 -192q-65 -88 -173 -88zM996 244v-243h-57v243h-252q-70 0 -70 60q0 31 17 62l304 528h58v-585h95v-65h-95zM939 781l-256 -449q-5 -8 -5 -16q0 -7 20 -7h241v472z" glyph-name="threequarters" unicode="¾"/>
<glyph horiz-adv-x="688" d="M444 1226q0 -76 -59 -76t-59 76q0 78 59 78t59 -78zM652 237q-15 -213 -73 -288q-86 -111 -224 -111q-163 0 -247 131q-72 110 -72 282q0 366 316 416v359h66v-443h-22q-142 0 -219 -98q-72 -90 -72 -236q0 -136 56 -224q67 -105 196 -105q110 0 177 88q27 37 39 99 q4 25 14 130h65z" glyph-name="questiondown" unicode="¿"/>
<glyph horiz-adv-x="794" d="M758 0h-69v711h-591v-711h-70v926q0 211 77 352q95 178 289 178q191 0 287 -179q77 -143 77 -351v-926zM689 791v104q0 479 -295 479q-296 0 -296 -479v-104h591zM259 1915l168 -351h93l-166 351h-95z" glyph-name="Agrave" unicode="À"/>
<glyph horiz-adv-x="794" d="M758 0h-69v711h-591v-711h-70v926q0 211 77 352q95 178 289 178q191 0 287 -179q77 -143 77 -351v-926zM689 791v104q0 479 -295 479q-296 0 -296 -479v-104h591zM512 1915l-168 -351h-92l165 351h95z" glyph-name="Aacute" unicode="Á"/>
<glyph horiz-adv-x="802" d="M758 0h-69v711h-591v-711h-70v926q0 211 77 352q95 178 289 178q191 0 287 -179q77 -143 77 -351v-926zM689 791v104q0 479 -295 479q-296 0 -296 -479v-104h591zM587 1604h-76l-133 237l-133 -237h-78l160 311h102z" glyph-name="Acircumflex" unicode="Â"/>
<glyph horiz-adv-x="806" d="M758 0h-69v711h-591v-711h-70v926q0 211 77 352q95 178 289 178q191 0 287 -179q77 -143 77 -351v-926zM689 791v104q0 479 -295 479q-296 0 -296 -479v-104h591zM580 1804q-26 -81 -49 -116q-35 -51 -87 -45q-30 3 -83 32.5t-82 32.5q-62 7 -94 -58h-26q50 169 137 160 q29 -3 80.5 -32.5t79.5 -32.5q62 -8 98 59h26z" glyph-name="Atilde" unicode="Ã"/>
<glyph horiz-adv-x="794" d="M758 0h-69v711h-591v-711h-70v926q0 211 77 352q95 178 289 178q191 0 287 -179q77 -143 77 -351v-926zM689 791v104q0 479 -295 479q-296 0 -296 -479v-104h591zM552 1720q0 -78 -60 -78q-59 0 -59 78t59 78q60 0 60 -78zM301 1720q0 -78 -60 -78q-59 0 -59 78t59 78 q60 0 60 -78z" glyph-name="Adieresis" unicode="Ä"/>
<glyph horiz-adv-x="802" d="M582 1739q0 -93 -43 -158q-49 -76 -137 -76q-89 0 -138 75q-41 65 -41 159q0 93 41 158q49 75 138 75t138 -75q42 -65 42 -158zM521 1739q0 58 -30 102q-33 51 -89 51t-89 -51q-29 -44 -29 -102t29 -102q33 -50 89 -50t89 50q30 44 30 102zM766 0h-69v711h-592v-711h-69 v926q0 211 76 352q96 178 290 178q190 0 287 -179q77 -143 77 -351v-926zM697 791v104q0 479 -295 479q-297 0 -297 -479v-104h592z" glyph-name="Aring" unicode="Å"/>
<glyph horiz-adv-x="1281" d="M698 210h-1v501h-592v-711h-69v926q0 211 76 352q96 178 290 178q197 0 296 -197v34h1q0 70 33 117q37 53 104 53h410v-82h-416q-62 -12 -62 -87v-506h411v-80h-411v-538q0 -75 62 -87h416v-82h-410q-62 0 -102 56q-36 49 -36 114v39zM697 791v104q0 479 -295 479 q-297 0 -297 -479v-104h592z" glyph-name="AE" unicode="Æ"/>
<glyph horiz-adv-x="1018" d="M610 -456q-34 0 -121.5 68t-132.5 68v73q56 4 148 -64.5t107 -67.5q106 4 106 98q0 99 -87 99q-47 0 -77 -42l1 200q-217 16 -362 214q-156 212 -156 527q0 288 130 495q153 244 425 244q229 0 392 -217l-53 -53q-138 188 -339 188q-239 0 -371 -218q-111 -183 -111 -437 q0 -256 110 -439q132 -219 372 -219q197 0 339 195l37 -82q-154 -193 -362 -199v-101q22 13 48 13q61 0 97 -53q32 -46 32 -110q0 -180 -172 -180z" glyph-name="Ccedilla" unicode="Ç"/>
<glyph horiz-adv-x="608" d="M571 0h-409q-64 0 -103 55q-35 49 -35 115v1092h1q0 70 32 117q38 53 105 53h409v-82h-415q-63 -12 -63 -87v-506h411v-80h-411v-508q0 -75 63 -87h415v-82zM178 1915l168 -351h92l-165 351h-95z" glyph-name="Egrave" unicode="È"/>
<glyph horiz-adv-x="608" d="M571 0h-409q-64 0 -103 55q-35 49 -35 115v1092h1q0 70 32 117q38 53 105 53h409v-82h-415q-63 -12 -63 -87v-506h411v-80h-411v-508q0 -75 63 -87h415v-82zM438 1915l-168 -351h-92l165 351h95z" glyph-name="Eacute" unicode="É"/>
<glyph horiz-adv-x="608" d="M571 0h-409q-64 0 -103 55q-35 49 -35 115v1092h1q0 70 32 117q38 53 105 53h409v-82h-415q-63 -12 -63 -87v-506h411v-80h-411v-508q0 -75 63 -87h415v-82zM514 1604h-77l-133 237l-133 -237h-78l160 311h102z" glyph-name="Ecircumflex" unicode="Ê"/>
<glyph horiz-adv-x="604" d="M571 0h-409q-64 0 -103 55q-35 49 -35 115v1092h1q0 70 32 117q38 53 105 53h409v-82h-415q-63 -12 -63 -87v-506h411v-80h-411v-508q0 -75 63 -87h415v-82zM486 1720q0 -78 -60 -78q-59 0 -59 78t59 78q60 0 60 -78zM235 1720q0 -78 -60 -78q-59 0 -59 78t59 78 q60 0 60 -78z" glyph-name="Edieresis" unicode="Ë"/>
<glyph horiz-adv-x="133" d="M100 0h-69v1432h69v-1432zM-82 1915l167 -351h93l-166 351h-94z" glyph-name="Igrave" unicode="Ì"/>
<glyph horiz-adv-x="133" d="M100 0h-69v1432h69v-1432zM193 1915l-168 -351h-92l166 351h94z" glyph-name="Iacute" unicode="Í"/>
<glyph horiz-adv-x="187" d="M118 0h-69v1432h69v-1432zM294 1604h-76l-133 237l-134 -237h-77l160 311h102z" glyph-name="Icircumflex" unicode="Î"/>
<glyph horiz-adv-x="171" d="M115 0h-70v1432h70v-1432zM263 1720q0 -78 -60 -78q-58 0 -58 78t58 78q60 0 60 -78zM12 1720q0 -78 -60 -78q-58 0 -58 78t58 78q60 0 60 -78z" glyph-name="Idieresis" unicode="Ï"/>
<glyph horiz-adv-x="981" d="M127 690h-91v82h91l-1 526h1q0 70 33 117q37 53 104 53l188 1q232 1 369 -224q125 -205 125 -517q0 -285 -92 -475q-121 -250 -376 -250h-212q-48 0 -88 39q-50 48 -50 131zM540 690h-344l1 -518q0 -75 62 -87l215 -1q222 -1 324 226q75 167 75 420q0 277 -103 456 q-115 200 -321 200h-191q-62 -12 -62 -87v-527h344v-82z" glyph-name="Eth" unicode="Ð"/>
<glyph horiz-adv-x="815" d="M775 124q0 -129 -89 -129q-60 0 -96 99l-454 1247q-7 21 -21 21q-20 0 -20 -37v-1325h-70v1315q0 129 89 129q60 0 96 -98l454 -1246q8 -21 20 -21q21 0 21 35v1318h70v-1308zM605 1804q-25 -81 -49 -116q-35 -51 -87 -45q-29 3 -82.5 32.5t-82.5 32.5q-62 7 -94 -58h-25 q50 169 137 160q29 -3 80 -32.5t79 -32.5q63 -8 98 59h26z" glyph-name="Ntilde" unicode="Ñ"/>
<glyph horiz-adv-x="1091" d="M1079 717q0 -360 -147 -543q-159 -199 -375 -199q-241 0 -399 216q-126 171 -126 526q0 354 127 526q158 213 398 213q238 0 396 -216q126 -171 126 -523zM1006 719q0 319 -102 463q-137 192 -347 192q-213 0 -349 -191q-103 -144 -103 -464t103 -465q137 -193 349 -193 q210 0 347 194q102 145 102 464zM426 1915l168 -351h92l-165 351h-95z" glyph-name="Ograve" unicode="Ò"/>
<glyph horiz-adv-x="1124" d="M1086 717q0 -360 -146 -543q-159 -199 -376 -199q-240 0 -398 216q-126 171 -126 526q0 354 127 526q157 213 397 213q238 0 397 -216q125 -171 125 -523zM1014 719q0 319 -102 463q-137 192 -348 192q-212 0 -348 -191q-104 -144 -104 -464t104 -465q137 -193 348 -193 t348 194q102 145 102 464zM686 1915l-168 -351h-92l165 351h95z" glyph-name="Oacute" unicode="Ó"/>
<glyph horiz-adv-x="1120" d="M1086 717q0 -360 -146 -543q-159 -199 -376 -199q-240 0 -398 216q-126 171 -126 526q0 354 127 526q157 213 397 213q238 0 397 -216q125 -171 125 -523zM1014 719q0 319 -102 463q-137 192 -348 192q-212 0 -348 -191q-104 -144 -104 -464t104 -465q137 -193 348 -193 t348 194q102 145 102 464zM762 1604h-77l-133 237l-133 -237h-78l160 311h102z" glyph-name="Ocircumflex" unicode="Ô"/>
<glyph horiz-adv-x="1124" d="M1086 717q0 -360 -146 -543q-159 -199 -376 -199q-240 0 -398 216q-126 171 -126 526q0 354 127 526q157 213 397 213q238 0 397 -216q125 -171 125 -523zM1014 719q0 319 -102 463q-137 192 -348 192q-212 0 -348 -191q-104 -144 -104 -464t104 -465q137 -193 348 -193 t348 194q102 145 102 464zM754 1804q-26 -81 -49 -116q-35 -51 -87 -45q-30 3 -83 32.5t-82 32.5q-62 7 -94 -58h-26q50 169 137 160q29 -3 80.5 -32.5t79.5 -32.5q62 -8 98 59h26z" glyph-name="Otilde" unicode="Õ"/>
<glyph horiz-adv-x="1116" d="M1079 717q0 -360 -147 -543q-159 -199 -375 -199q-241 0 -399 216q-126 171 -126 526q0 354 127 526q158 213 398 213q238 0 396 -216q126 -171 126 -523zM1006 719q0 319 -102 463q-137 192 -347 192q-213 0 -349 -191q-103 -144 -103 -464t103 -465q137 -193 349 -193 q210 0 347 194q102 145 102 464zM726 1720q0 -78 -60 -78q-58 0 -58 78t58 78q60 0 60 -78zM475 1720q0 -78 -60 -78q-58 0 -58 78t58 78q60 0 60 -78z" glyph-name="Odieresis" unicode="Ö"/>
<glyph horiz-adv-x="617" d="M576 899l-223 -290l228 -296l-44 -56l-227 296l-223 -289l-45 58l223 289l-229 297l44 56l229 -297l222 290z" glyph-name="multiply" unicode="×"/>
<glyph horiz-adv-x="1118" d="M358 115l354 1230q-70 29 -151 29q-213 0 -349 -191q-103 -144 -103 -464t103 -465q65 -91 146 -139zM772 1314l-352 -1229q65 -24 141 -24q210 0 347 194q102 145 102 464t-102 463q-61 85 -136 132zM838 1542l-43 -149q89 -54 162 -153q126 -171 126 -523 q0 -360 -147 -543q-159 -199 -375 -199q-88 0 -164 29l-30 -101h-70l38 129q-96 54 -173 159q-126 171 -126 526q0 354 127 526q157 213 398 213q93 0 174 -33l33 119h70z" glyph-name="Oslash" unicode="Ø"/>
<glyph horiz-adv-x="782" d="M758 506q0 -209 -76 -352q-96 -179 -288 -179q-195 0 -290 178q-76 140 -76 353v926h70v-891q0 -480 296 -480q295 0 295 480v891h69v-926zM252 1915l168 -351h92l-166 351h-94z" glyph-name="Ugrave" unicode="Ù"/>
<glyph horiz-adv-x="794" d="M758 506q0 -209 -76 -352q-96 -179 -288 -179q-195 0 -290 178q-76 140 -76 353v926h70v-891q0 -480 296 -480q295 0 295 480v891h69v-926zM527 1915l-167 -351h-93l166 351h94z" glyph-name="Uacute" unicode="Ú"/>
<glyph horiz-adv-x="794" d="M758 506q0 -209 -76 -352q-96 -179 -288 -179q-195 0 -290 178q-76 140 -76 353v926h70v-891q0 -480 296 -480q295 0 295 480v891h69v-926zM603 1604h-76l-134 237l-133 -237h-78l161 311h101z" glyph-name="Ucircumflex" unicode="Û"/>
<glyph horiz-adv-x="769" d="M758 506q0 -209 -76 -352q-96 -179 -288 -179q-195 0 -290 178q-76 140 -76 353v926h70v-891q0 -480 296 -480q295 0 295 480v891h69v-926zM575 1720q0 -78 -60 -78q-58 0 -58 78t58 78q60 0 60 -78zM324 1720q0 -78 -60 -78q-58 0 -58 78t58 78q60 0 60 -78z" glyph-name="Udieresis" unicode="Ü"/>
<glyph horiz-adv-x="806" d="M779 1432l-345 -721v-711h-64v709l-346 723h69l309 -644l308 644h69zM530 1915l-168 -351h-93l166 351h95z" glyph-name="Yacute" unicode="Ý"/>
<glyph horiz-adv-x="775" d="M739 767q0 -441 -330 -441q-112 0 -172 21q-88 31 -135 117v-470h-65l-1 1v1467h65v-427q91 174 311 174q327 0 327 -442zM671 769q0 364 -262 364q-307 0 -307 -415v-131q81 -182 307 -182q262 0 262 364z" glyph-name="Thorn" unicode="Þ"/>
<glyph horiz-adv-x="872" d="M142 689l-6 2l-100 82l106 -2v126h-10l-92 84h102q10 218 51 315q67 156 247 156q110 0 181 -103q62 -91 64 -207q2 -107 -55 -167q-35 -37 -108 -68q-58 -25 -58 -43q-1 -15 93 -92q118 -97 179 -181q98 -135 100 -286q3 -182 -91 -319q-107 -155 -282 -146l-196 10v72 q57 -16 120 -16q154 0 259 90q124 106 126 307q0 132 -98 244q-13 15 -184 163q-97 85 -95 156q2 67 62 94l106 48q56 40 55 134q-2 82 -46 152q-52 80 -128 80q-237 0 -237 -375v-999h-65v689z" glyph-name="germandbls" unicode="ß"/>
<glyph d="M770 0h-65v180q-61 -110 -169 -165q-65 -33 -138 -33q-187 0 -290 164q-86 138 -86 337q0 203 83 339q100 163 290 163q198 0 310 -214v197h65v-968zM705 303v131q0 183 -62 310q-81 165 -245 165q-157 0 -240 -140q-69 -115 -69 -284q0 -171 67 -285q82 -139 242 -139 q74 0 138 41q111 71 169 201zM267 1432l168 -351h92l-165 351h-95z" glyph-name="agrave" unicode="à"/>
<glyph d="M770 0h-65v180q-61 -110 -169 -165q-65 -33 -138 -33q-187 0 -290 164q-86 138 -86 337q0 203 83 339q100 163 290 163q198 0 310 -214v197h65v-968zM705 303v131q0 183 -62 310q-81 165 -245 165q-157 0 -240 -140q-69 -115 -69 -284q0 -171 67 -285q82 -139 242 -139 q74 0 138 41q111 71 169 201zM520 1432l-168 -351h-93l166 351h95z" glyph-name="aacute" unicode="á"/>
<glyph d="M770 0h-65v180q-61 -110 -169 -165q-65 -33 -138 -33q-187 0 -290 164q-86 138 -86 337q0 203 83 339q100 163 290 163q198 0 310 -214v197h65v-968zM705 303v131q0 183 -62 310q-81 165 -245 165q-157 0 -240 -140q-69 -115 -69 -284q0 -171 67 -285q82 -139 242 -139 q74 0 138 41q111 71 169 201zM618 1121h-76l-133 237l-133 -237h-78l160 311h102z" glyph-name="acircumflex" unicode="â"/>
<glyph d="M770 0h-65v180q-61 -110 -169 -165q-65 -33 -138 -33q-187 0 -290 164q-86 138 -86 337q0 203 83 339q100 163 290 163q198 0 310 -214v197h65v-968zM705 303v131q0 183 -62 310q-81 165 -245 165q-157 0 -240 -140q-69 -115 -69 -284q0 -171 67 -285q82 -139 242 -139 q74 0 138 41q111 71 169 201zM626 1321q-25 -81 -49 -116q-35 -51 -87 -45q-30 3 -83 32.5t-82 32.5q-62 7 -94 -58h-25q50 169 137 160q28 -3 79.5 -32.5t79.5 -32.5q63 -8 98 59h26z" glyph-name="atilde" unicode="ã"/>
<glyph d="M770 0h-65v180q-61 -110 -169 -165q-65 -33 -138 -33q-187 0 -290 164q-86 138 -86 337q0 203 83 339q100 163 290 163q198 0 310 -214v197h65v-968zM705 303v131q0 183 -62 310q-81 165 -245 165q-157 0 -240 -140q-69 -115 -69 -284q0 -171 67 -285q82 -139 242 -139 q74 0 138 41q111 71 169 201zM583 1237q0 -78 -60 -78q-59 0 -59 78t59 78q60 0 60 -78zM332 1237q0 -78 -60 -78q-59 0 -59 78t59 78q60 0 60 -78z" glyph-name="adieresis" unicode="ä"/>
<glyph horiz-adv-x="820" d="M584 1286q0 -94 -43 -158q-49 -75 -138 -75q-90 0 -139 75q-41 64 -41 158q0 93 42 158q49 76 138 76t138 -75q43 -65 43 -159zM521 1286q0 58 -29 103q-32 51 -88 51q-55 0 -89 -51q-29 -45 -29 -103t29 -103q34 -50 89 -50q56 0 88 51q29 44 29 102zM785 0h-65v180 q-61 -110 -169 -165q-66 -33 -138 -33q-188 0 -290 164q-87 138 -87 337q0 203 84 339q100 163 290 163q198 0 310 -214v197h65v-968zM720 303v131q0 183 -62 310q-81 165 -245 165q-158 0 -240 -140q-69 -115 -69 -284q0 -171 67 -285q82 -139 242 -139q74 0 138 41 q110 71 169 201z" glyph-name="aring" unicode="å"/>
<glyph horiz-adv-x="1507" d="M720 303v131q0 183 -62 310q-81 165 -245 165q-158 0 -240 -140q-69 -115 -69 -284q0 -171 67 -285q82 -139 242 -139q74 0 138 41q110 71 169 201zM1471 500q0 -26 -3 -44h-678q8 -159 80 -267q86 -127 236 -127q74 0 150 33q80 35 122 91l47 -59q-49 -67 -143 -107 q-87 -37 -176 -37q-211 0 -321 214v-197h-65v180q-61 -110 -169 -165q-66 -33 -138 -33q-188 0 -290 164q-87 138 -87 337q0 203 84 339q100 163 290 163q198 0 310 -214v197h65v-199q108 217 313 217q180 0 284 -159q89 -137 89 -327zM1404 536q-12 152 -82 253 q-83 121 -224 121q-140 0 -225 -121q-70 -102 -82 -253h613z" glyph-name="ae" unicode="æ"/>
<glyph horiz-adv-x="713" d="M453 -456q-34 0 -121.5 68t-132.5 68v73q56 4 148 -64.5t107 -67.5q106 4 106 98q0 99 -87 99q-47 0 -77 -42l1 206q-177 9 -276 173q-85 139 -85 328q0 195 89 336q104 166 288 166q155 0 265 -145l-47 -53q-90 122 -218 122q-156 0 -240 -141q-69 -116 -69 -283 t69 -283q84 -141 240 -141q128 0 218 124l45 -56q-97 -130 -228 -145v-110q22 13 48 13q61 0 97 -53q32 -46 32 -110q0 -180 -172 -180z" glyph-name="ccedilla" unicode="ç"/>
<glyph horiz-adv-x="807" d="M772 499q0 -26 -4 -44h-678q7 -160 80 -268q85 -126 236 -126q74 0 150 33q80 35 122 91l47 -59q-107 -144 -319 -144q-188 0 -294 163q-90 139 -90 338q0 195 88 336q104 166 288 166q179 0 283 -159q91 -138 91 -327zM704 535q-11 151 -82 253q-84 121 -224 121 q-141 0 -225 -121q-71 -102 -82 -253h613zM269 1432l168 -351h92l-166 351h-94z" glyph-name="egrave" unicode="è"/>
<glyph horiz-adv-x="807" d="M772 499q0 -26 -4 -44h-678q7 -160 80 -268q85 -126 236 -126q74 0 150 33q80 35 122 91l47 -59q-107 -144 -319 -144q-188 0 -294 163q-90 139 -90 338q0 195 88 336q104 166 288 166q179 0 283 -159q91 -138 91 -327zM704 535q-11 151 -82 253q-84 121 -224 121 q-141 0 -225 -121q-71 -102 -82 -253h613zM537 1432l-168 -351h-93l166 351h95z" glyph-name="eacute" unicode="é"/>
<glyph horiz-adv-x="807" d="M772 499q0 -26 -4 -44h-678q7 -160 80 -268q85 -126 236 -126q74 0 150 33q80 35 122 91l47 -59q-107 -144 -319 -144q-188 0 -294 163q-90 139 -90 338q0 195 88 336q104 166 288 166q179 0 283 -159q91 -138 91 -327zM704 535q-11 151 -82 253q-84 121 -224 121 q-141 0 -225 -121q-71 -102 -82 -253h613zM620 1121h-76l-134 237l-133 -237h-78l161 311h101z" glyph-name="ecircumflex" unicode="ê"/>
<glyph horiz-adv-x="807" d="M772 499q0 -26 -4 -44h-678q7 -160 80 -268q85 -126 236 -126q74 0 150 33q80 35 122 91l47 -59q-107 -144 -319 -144q-188 0 -294 163q-90 139 -90 338q0 195 88 336q104 166 288 166q179 0 283 -159q91 -138 91 -327zM704 535q-11 151 -82 253q-84 121 -224 121 q-141 0 -225 -121q-71 -102 -82 -253h613zM584 1237q0 -78 -60 -78q-58 0 -58 78t58 78q60 0 60 -78zM333 1237q0 -78 -60 -78q-58 0 -58 78t58 78q60 0 60 -78z" glyph-name="edieresis" unicode="ë"/>
<glyph horiz-adv-x="122" d="M87 0h-65v967h65v-967zM-82 1432l167 -351h93l-166 351h-94z" glyph-name="igrave" unicode="ì"/>
<glyph horiz-adv-x="130" d="M95 0h-65v967h65v-967zM178 1432l-168 -351h-92l165 351h95z" glyph-name="iacute" unicode="í"/>
<glyph horiz-adv-x="151" d="M105 0h-65v967h65v-967zM279 1121h-77l-133 237l-133 -237h-78l160 311h102z" glyph-name="icircumflex" unicode="î"/>
<glyph horiz-adv-x="189" d="M125 0h-65v967h65v-967zM279 1237q0 -78 -60 -78q-59 0 -59 78t59 78q60 0 60 -78zM28 1237q0 -78 -60 -78q-59 0 -59 78t59 78q60 0 60 -78z" glyph-name="idieresis" unicode="ï"/>
<glyph horiz-adv-x="900" d="M104 485q0 -171 68 -285q82 -139 241 -139q74 0 138 41q110 71 169 201v131q0 183 -62 310q-81 165 -245 165q-158 0 -240 -140q-69 -115 -69 -284zM865 1273q-41 -79 -80 -112l-1 -1l-7 -841q-14 -197 -226 -304q-66 -33 -138 -33q-188 0 -290 163q-87 139 -87 338 q0 203 84 339q100 163 290 163q198 0 311 -214v354q-34 -10 -76 -7q-45 3 -132 31t-133 31q-98 7 -151 -55h-40q38 79 77 112q56 46 143 41q44 -3 128.5 -31t127.5 -31q29 -2 56 2v210h64v-187q20 12 37 32h43z" glyph-name="eth" unicode="ð"/>
<glyph horiz-adv-x="692" d="M641 0h-63v573q0 130 -53 223q-65 113 -186 113q-120 0 -185 -101q-54 -85 -54 -212v-594h-1v-2h-63v2h-1v967h65v-133q83 149 239 149q159 0 239 -147q63 -117 63 -291v-547zM564 1321q-26 -81 -50 -116q-34 -51 -87 -45q-29 3 -82 32.5t-82 32.5q-62 7 -94 -58h-26 q50 169 137 160q29 -3 80 -32.5t80 -32.5q62 -8 97 59h27z" glyph-name="ntilde" unicode="ñ"/>
<glyph horiz-adv-x="808" d="M773 483q0 -195 -88 -336q-103 -165 -287 -165t-288 165q-88 141 -88 336t88 336q104 166 288 166q185 0 288 -166q87 -140 87 -336zM705 485q0 166 -69 283q-83 141 -238 141q-156 0 -239 -141q-70 -116 -70 -283t70 -283q83 -141 239 -141q153 0 237 142q70 118 70 282 zM263 1432l167 -351h93l-166 351h-94z" glyph-name="ograve" unicode="ò"/>
<glyph horiz-adv-x="808" d="M773 483q0 -195 -88 -336q-103 -165 -287 -165t-288 165q-88 141 -88 336t88 336q104 166 288 166q185 0 288 -166q87 -140 87 -336zM705 485q0 166 -69 283q-83 141 -238 141q-156 0 -239 -141q-70 -116 -70 -283t70 -283q83 -141 239 -141q153 0 237 142q70 118 70 282 zM538 1432l-168 -351h-92l166 351h94z" glyph-name="oacute" unicode="ó"/>
<glyph horiz-adv-x="808" d="M773 483q0 -195 -88 -336q-103 -165 -287 -165t-288 165q-88 141 -88 336t88 336q104 166 288 166q185 0 288 -166q87 -140 87 -336zM705 485q0 166 -69 283q-83 141 -238 141q-156 0 -239 -141q-70 -116 -70 -283t70 -283q83 -141 239 -141q153 0 237 142q70 118 70 282 zM629 1121h-76l-133 237l-134 -237h-77l160 311h101z" glyph-name="ocircumflex" unicode="ô"/>
<glyph horiz-adv-x="808" d="M773 483q0 -195 -88 -336q-103 -165 -287 -165t-288 165q-88 141 -88 336t88 336q104 166 288 166q185 0 288 -166q87 -140 87 -336zM705 485q0 166 -69 283q-83 141 -238 141q-156 0 -239 -141q-70 -116 -70 -283t70 -283q83 -141 239 -141q153 0 237 142q70 118 70 282 zM598 1321q-25 -81 -49 -116q-35 -51 -87 -45q-29 3 -82.5 32.5t-82.5 32.5q-61 7 -94 -58h-25q50 169 137 160q29 -3 80 -32.5t79 -32.5q63 -8 98 59h26z" glyph-name="otilde" unicode="õ"/>
<glyph horiz-adv-x="808" d="M773 483q0 -195 -88 -336q-103 -165 -287 -165t-288 165q-88 141 -88 336t88 336q104 166 288 166q185 0 288 -166q87 -140 87 -336zM705 485q0 166 -69 283q-83 141 -238 141q-156 0 -239 -141q-70 -116 -70 -283t70 -283q83 -141 239 -141q153 0 237 142q70 118 70 282 zM578 1237q0 -78 -60 -78q-58 0 -58 78t58 78q60 0 60 -78zM327 1237q0 -78 -60 -78q-58 0 -58 78t58 78q60 0 60 -78z" glyph-name="odieresis" unicode="ö"/>
<glyph horiz-adv-x="840" d="M497 956q0 -100 -76 -100q-75 0 -75 100q0 99 75 99q76 0 76 -99zM805 569h-769v82h769v-82zM497 264q0 -98 -76 -98q-75 0 -75 98q0 101 75 101q76 0 76 -101z" glyph-name="divide" unicode="÷"/>
<glyph horiz-adv-x="823" d="M261 108l227 791q-35 10 -75 10q-156 0 -240 -141q-69 -116 -69 -283q0 -180 84 -301q33 -48 73 -76zM550 871l-228 -795q42 -15 91 -15q153 0 237 142q70 118 70 282q0 180 -83 300q-38 55 -87 86zM611 1083l-40 -139q62 -36 111 -103q106 -144 106 -358 q0 -195 -88 -336q-103 -165 -287 -165q-60 0 -113 20l-25 -89h-70l34 120q-52 34 -96 94q-107 145 -107 356q0 195 89 336q104 166 288 166q51 0 96 -14l32 112h70z" glyph-name="oslash" unicode="ø"/>
<glyph horiz-adv-x="665" d="M640 420q0 -174 -64 -291q-79 -147 -239 -147q-161 0 -240 146q-62 116 -62 292v547h63v-574q0 -132 52 -224q65 -112 187 -112q121 0 185 113q53 93 53 223v574h65v-547zM204 1432l168 -351h92l-165 351h-95z" glyph-name="ugrave" unicode="ù"/>
<glyph horiz-adv-x="669" d="M640 420q0 -174 -64 -291q-79 -147 -239 -147q-161 0 -240 146q-62 116 -62 292v547h63v-574q0 -132 52 -224q65 -112 187 -112q121 0 185 113q53 93 53 223v574h65v-547zM480 1432l-168 -351h-93l166 351h95z" glyph-name="uacute" unicode="ú"/>
<glyph horiz-adv-x="669" d="M640 420q0 -174 -64 -291q-79 -147 -239 -147q-161 0 -240 146q-62 116 -62 292v547h63v-574q0 -132 52 -224q65 -112 187 -112q121 0 185 113q53 93 53 223v574h65v-547zM547 1121h-76l-133 237l-133 -237h-78l160 311h102z" glyph-name="ucircumflex" unicode="û"/>
<glyph horiz-adv-x="673" d="M640 420q0 -174 -64 -291q-79 -147 -239 -147q-161 0 -240 146q-62 116 -62 292v547h63v-574q0 -132 52 -224q65 -112 187 -112q121 0 185 113q53 93 53 223v574h65v-547zM512 1237q0 -78 -60 -78q-59 0 -59 78t59 78q60 0 60 -78zM261 1237q0 -78 -60 -78q-59 0 -59 78 t59 78q60 0 60 -78z" glyph-name="udieresis" unicode="ü"/>
<glyph horiz-adv-x="673" d="M640 30q0 -202 -79 -335q-97 -161 -285 -161q-132 0 -249 96l22 84q65 -61 141 -82q51 -14 89 -14q156 0 233 135q63 109 63 277v98q-84 -146 -238 -146q-161 0 -240 146q-62 116 -62 292v547h63v-574q0 -132 52 -224q65 -112 187 -112q121 0 185 113q53 93 53 223v574 h65v-937zM472 1432l-168 -351h-92l165 351h95z" glyph-name="yacute" unicode="ý"/>
<glyph horiz-adv-x="821" d="M785 484q0 -199 -86 -337q-103 -164 -290 -164q-72 0 -138 33q-109 55 -169 165v-640h-65l-1 1v1917h65v-687q113 214 311 214q190 0 290 -163q83 -136 83 -339zM718 486q0 168 -69 284q-84 140 -240 140q-167 0 -247 -164q-60 -125 -60 -311v-131q58 -130 169 -201 q64 -41 138 -41q158 0 241 139q68 115 68 285z" glyph-name="thorn" unicode="þ"/>
</font>
</defs>
</svg>
